# xmcd
# 
# Track frame offsets:
#     150
#     68737
#     106500
#     141000
#     185100
#     217350
#     236550
# 
# Disc length: 3571
# 
# Revision: 0
# Processed by: cddbd v1.5.2PL0 Copyright (c) Steve Scherf et al.
# Submitted via: BonkEnc v1.0.15
# 
DISCID=660df107
DTITLE=Various Artist - Medidation Pure moments for Relaxation CD3
DYEAR=2006
DGENRE=Meditative
TTITLE0=Osvaldo Canzani - By the Sea
TTITLE1=Osvaldo Canzani - High Tide
TTITLE2=Aquiles Sojo - Crest
TTITLE3=Osvaldo Canzani - Gentle Surf
TTITLE4=Mano A Mano - On The Beach
TTITLE5=Jacques van de Velde - Sunken Cathedral
TTITLE6=Osvaldo Canzani - Far And Away
EXTD=
EXTT0=
EXTT1=
EXTT2=
EXTT3=
EXTT4=
EXTT5=
EXTT6=
PLAYORDER=
